<svg width="44" height="44" viewBox="0 0 44 44" fill="none" xmlns="http://www.w3.org/2000/svg">
<path d="M8.11526 37.4014L5.02563 2.75H38.9744L35.8806 37.3959L21.9794 41.25L8.11526 37.4014Z" fill="#E44F26"/>
<path d="M22 38.3047L33.2338 35.1904L35.8765 5.58386H22V38.3047Z" fill="#F1662A"/>
<path d="M22 18.4346H16.3762L15.9885 14.0827H22V9.83261H11.3438L11.4455 10.9739L12.4891 22.6847H22V18.4346V18.4346Z" fill="#EBEBEB"/>
<path d="M22 29.4717L21.9807 29.4772L17.248 28.1999L16.9455 24.8105H12.6789L13.2742 31.482L21.9807 33.8992L22 33.8937V29.4717Z" fill="#EBEBEB"/>
<path d="M21.9849 18.4346V22.6848H27.2181L26.7259 28.1971L21.9849 29.4759V33.8979L30.6982 31.482L30.7615 30.7643L31.7597 19.5759L31.8642 18.4346H21.9849V18.4346Z" fill="white"/>
<path d="M21.9849 9.83261V14.0827H32.2506L32.3359 13.1285L32.5297 10.9739L32.6315 9.83261H21.9849V9.83261Z" fill="white"/>
</svg>
