<svg width="30" height="44" viewBox="0 0 30 44" fill="none" xmlns="http://www.w3.org/2000/svg">
<path d="M7.5 44C11.64 44 15 40.7147 15 36.6667V29.3333H7.5C3.36 29.3333 0 32.6187 0 36.6667C0 40.7147 3.36 44 7.5 44Z" fill="#0ACF83"/>
<path d="M0 22C0 17.952 3.36 14.6667 7.5 14.6667H15V29.3333H7.5C3.36 29.3333 0 26.048 0 22Z" fill="#A259FF"/>
<path d="M0 7.33333C0 3.28533 3.36 0 7.5 0H15V14.6667H7.5C3.36 14.6667 0 11.3813 0 7.33333Z" fill="#F24E1E"/>
<path d="M15 0H22.5C26.64 0 30 3.28533 30 7.33333C30 11.3813 26.64 14.6667 22.5 14.6667H15V0Z" fill="#FF7262"/>
<path d="M30 22C30 26.048 26.64 29.3333 22.5 29.3333C18.36 29.3333 15 26.048 15 22C15 17.952 18.36 14.6667 22.5 14.6667C26.64 14.6667 30 17.952 30 22Z" fill="#1ABCFE"/>
</svg>
