<svg width="44" height="44" viewBox="0 0 44 44" fill="none" xmlns="http://www.w3.org/2000/svg">
<path d="M8.11523 37.4014L5.02698 2.75H38.973L35.8806 37.3959L21.9793 41.25L8.11523 37.4014Z" fill="#1572B6"/>
<path d="M22 38.3047L33.2338 35.1904L35.8765 5.58386H22V38.3047Z" fill="#33A9DC"/>
<path d="M22 18.1376H27.6238L28.0115 13.7857H22V9.53561H32.6562L32.5545 10.6755L31.5109 22.3877H22V18.1376V18.1376Z" fill="white"/>
<path d="M22.0261 29.1747L22.0069 29.1802L17.2741 27.9015L16.9716 24.5121H12.705L13.3004 31.185L22.0055 33.6022L22.0261 33.5967V29.1747V29.1747Z" fill="#EBEBEB"/>
<path d="M27.2621 22.2076L26.7506 27.8987L22.011 29.1775V33.5995L30.723 31.185L30.7876 30.4672L31.526 22.2076H27.2621V22.2076Z" fill="white"/>
<path d="M22.0152 9.53561V13.7857H11.7494L11.6642 12.8301L11.4703 10.6755L11.3685 9.53561H22.0152V9.53561Z" fill="#EBEBEB"/>
<path d="M22 18.1376V22.3878H17.3264L17.2411 21.4321L17.0486 19.2775L16.9469 18.1376H22V18.1376Z" fill="#EBEBEB"/>
</svg>
