<svg width="44" height="44" viewBox="0 0 44 44" fill="none" xmlns="http://www.w3.org/2000/svg">
<path d="M12.123 11.979L9.27917 9.13516L9.29121 29.6914L9.32524 30.6522C9.33933 31.1042 9.42321 31.6144 9.56311 32.143L32.0966 40.0888L37.7293 37.5932L37.7313 37.5863L12.123 11.979Z" fill="#00D2B8"/>
<path d="M9.56313 32.143L9.56451 32.1444C9.56313 32.1351 9.55832 32.1248 9.55832 32.1152C9.55832 32.1248 9.55969 32.1337 9.56313 32.143V32.143ZM37.7293 37.5932L32.0966 40.0888L9.56451 32.1444C9.99488 33.7958 10.9478 35.652 11.9732 36.6671L19.3267 43.9787L35.6771 44L37.7314 37.5863L37.7293 37.5932V37.5932Z" fill="#55DDCA"/>
<path d="M0.521466 22.3637C-0.206597 23.1409 0.155028 24.7442 1.32722 25.9253L6.38343 31.0235L9.56312 32.1431C9.42321 31.6144 9.33934 31.1042 9.32525 30.6522L9.29121 29.6914L9.27918 9.13516L0.521466 22.3637V22.3637Z" fill="#0081C6"/>
<path d="M32.2815 9.39917C31.7529 9.26407 31.2458 9.18054 30.7862 9.16611L29.7708 9.13104L9.27917 9.13379L37.7341 37.5863H37.7365L40.2356 31.9481L32.2815 9.39917Z" fill="#0079B3"/>
<path d="M32.2558 9.39365C32.2668 9.39605 32.2754 9.39915 32.2826 9.40018L32.2816 9.39915C32.2754 9.39605 32.2668 9.39605 32.2558 9.39365ZM36.8015 11.8133C35.7689 10.7721 33.9371 9.82574 32.2826 9.40018L40.2356 31.9481L37.7365 37.5863H37.7341L43.8412 35.6359L43.8542 18.8925L36.8015 11.8133V11.8133Z" fill="#00A4E4"/>
<path d="M31.1674 6.23871L26.0707 1.1794C24.892 0.0116825 23.288 -0.351661 22.5129 0.374339L9.27917 9.13378L29.7708 9.13103L30.7862 9.16609C31.2458 9.18053 31.7529 9.26406 32.2815 9.39915L31.1674 6.23871V6.23871Z" fill="#00D2B8"/>
</svg>
